PathFileType	4	(x/y/z)	S05_M20_T05
DataRate	CameraRate	NumFrames	NumMarkers	Units	OrigDataRate	OrigDataStartFrame	OrigNumFrames
240	240	4	50	mm	240	66	527
Frame#	Time	Sternum			R.Acromium			L.Acromium			Top.Head			R.ASIS			L.ASIS			R.PSIS			L.PSIS			R.Great.Tro			L.Great.Tro			R.Iliac.Crest			L.Iliac.Crest			V.Sacral			R.Thigh.Upper.Post			R.Thigh.Lower.Ant			R.Thigh.Lower.Post			R.Thigh.Upper.Ant			R.Knee.Lat			R.Knee.Med			R.Shank.Upper.Post			R.Shank.Lower.Ant			R.Shank.Lower.Post			R.Shank.Upper.Ant			R.Ankle.Lat			R.Ankle.Med			R.Heel.Upper			R.Heel.Med			R.Heel.Lat			R.Toe.Lat			R.Toe.Med			R.Toe.Tip			L.Thigh.Upper.Post			L.Thigh.Lower.Ant			L.Thigh.Lower.Post			L.Thigh.Upper.Ant			L.Knee.Lat			L.Shank.Upper.Post			L.Shank.Lower.Ant			L.Shank.Lower.Post			L.Shank.Upper.Ant			L.Ankle.Lat			L.Ankle.Med			L.Heel.Upper			L.Heel.Med			L.Heel.Lat			L.Toe.Lat			L.Toe.Med			L.Toe.Tip			Cervical.Spine			Back			
		X1	Y1	Z1	X2	Y2	Z2	X3	Y3	Z3	X4	Y4	Z4	X5	Y5	Z5	X6	Y6	Z6	X7	Y7	Z7	X8	Y8	Z8	X9	Y9	Z9	X10	Y10	Z10	X11	Y11	Z11	X12	Y12	Z12	X13	Y13	Z13	X14	Y14	Z14	X15	Y15	Z15	X16	Y16	Z16	X17	Y17	Z17	X18	Y18	Z18	X19	Y19	Z19	X20	Y20	Z20	X21	Y21	Z21	X22	Y22	Z22	X23	Y23	Z23	X24	Y24	Z24	X25	Y25	Z25	X26	Y26	Z26	X27	Y27	Z27	X28	Y28	Z28	X29	Y29	Z29	X30	Y30	Z30	X31	Y31	Z31	X32	Y32	Z32	X33	Y33	Z33	X34	Y34	Z34	X35	Y35	Z35	X36	Y36	Z36	X37	Y37	Z37	X38	Y38	Z38	X39	Y39	Z39	X40	Y40	Z40	X41	Y41	Z41	X42	Y42	Z42	X43	Y43	Z43	X44	Y44	Z44	X45	Y45	Z45	X46	Y46	Z46	X47	Y47	Z47	X48	Y48	Z48	X49	Y49	Z49	X50	Y50	Z50	

66	0.27083	-415.32	1226.2	286.22	-487.04	1499.1	435.53	-505.36	1504.6	106.36	-517.97	1785.9	248.84	-512.28	966.4	432.68	-489.07	978.24	185.26	-705.33	1001.5	331.36	-696.41	1005.4	239.55	-607.29	891.18	488.59	-556.49	906.43	96.2	-594.88	1059.6	464.39	-575.12	1057.3	129.33	-717.27	969.47	296.39	-531.88	665.97	511.87	-469.16	595.57	472.24	-534.43	575.94	498.31	-471.23	684.61	483.31	-546.02	486.13	489.74	-529.83	461.72	359.56	-766.22	409.13	465.79	-792.55	323.3	456.95	-831.48	373.19	443.83	-726.33	358.9	477.22	-892.94	294.33	432.97	-855.03	294.65	349.79	-957.23	334.54	373.66	-977.62	318.79	339.39	-984.76	310.03	402.99	-940.75	146.21	437.55	-901.99	137.31	320.64	-867.31	78.757	363.78	-481.47	675.48	116.09	-385.84	631.87	151.09	-444.47	590.07	138.86	-414.96	715.56	128.94	-404.3	513.67	150.12	-472.95	315.92	153.86	-408.86	255.48	165.1	-479.38	245.13	174.22	-406.9	324.94	149.97	-459.41	115.21	187.7	-429.25	128.45	275.51	-522.15	66.273	240.36	-511.26	41.492	273.09	-519.87	38.952	211.7	-337.22	37.505	157.96	-314.04	50.01	277.44	-250.98	60.781	222.53	-560.4	1535.6	279.34	-688.58	1264.6	291.98
67	0.275	-410.75	1227.5	285.98	-482.49	1500.4	435.44	-500.66	1505.9	106.23	-513.43	1787.3	249.19	-507.22	967.92	432.21	-484.62	979.48	184.74	-700.56	1002.7	331.45	-691.86	1006.6	239.63	-601.54	892.55	488.62	-552.55	907.38	95.989	-589.79	1061	464.14	-570.83	1058.6	129.08	-712.56	970.59	296.52	-522.67	668.35	511.84	-459.08	598.92	471.85	-523.88	578.27	498.36	-462.51	687.94	482.87	-534.18	488.32	489.63	-517.88	464.37	359.34	-753.98	410.77	465.28	-779.94	324.83	456.39	-819.07	374.61	443.3	-713.91	360.71	476.76	-880.2	295.58	432.29	-842.21	296.31	349	-945.05	335.39	372.97	-965.26	319.42	338.67	-972.31	310.6	402.29	-926.6	147.33	436.76	-887.86	138.83	319.83	-852.52	80.749	362.96	-478.77	675.95	115.8	-383.36	631.7	150.58	-442.3	590.29	138.5	-411.96	715.59	128.46	-402.59	513.56	149.73	-471.95	315.97	153.41	-408.08	255.35	164.88	-478.66	245.24	173.86	-405.87	324.77	149.67	-459.24	115.29	187.6	-429.06	128.52	275.41	-522.13	66.342	240.34	-511.24	41.569	273.08	-519.84	39.019	211.67	-337.19	37.417	157.92	-314	49.99	277.41	-250.93	60.654	222.48	-555.7	1536.9	279.19	-683.87	1265.8	291.67
68	0.27917	-406.2	1228.8	285.76	-477.98	1501.7	435.36	-495.98	1507.2	106.1	-508.89	1788.6	249.55	-502.18	969.46	431.74	-480.19	980.71	184.22	-695.8	1003.8	331.57	-687.32	1007.7	239.73	-595.81	893.96	488.67	-548.67	908.33	95.802	-584.71	1062.4	463.9	-566.56	1059.8	128.85	-707.87	971.72	296.67	-513.46	670.83	511.78	-449.05	602.37	471.41	-513.34	580.72	498.38	-453.82	691.34	482.4	-522.38	490.61	489.48	-506	467.15	359.07	-741.77	412.33	464.72	-767.27	326.27	455.76	-806.66	375.9	442.7	-701.46	362.49	476.23	-867.38	296.64	431.54	-829.32	297.82	348.14	-932.83	335.97	372.23	-952.85	319.77	337.89	-959.78	310.89	401.55	-912.21	148.24	435.91	-873.49	140.17	318.97	-837.42	82.629	362.09	-476.15	676.43	115.53	-380.96	631.52	150.06	-440.2	590.51	138.14	-409.03	715.61	127.97	-400.96	513.45	149.35	-471	316.01	152.97	-407.34	255.23	164.67	-477.97	245.34	173.52	-404.89	324.62	149.37	-459.08	115.36	187.5	-428.88	128.59	275.31	-522.1	66.413	240.32	-511.22	41.645	273.06	-519.81	39.086	211.66	-337.17	37.331	157.87	-313.97	49.97	277.37	-250.88	60.529	222.44	-551.04	1538.2	279.06	-679.18	1267.1	291.37
69	0.28333	-401.66	1230.2	285.55	-473.5	1503	435.29	-491.32	1508.6	105.99	-504.37	1790	249.93	-497.15	971	431.28	-475.77	981.95	183.71	-691.06	1004.9	331.72	-682.8	1008.9	239.86	-590.09	895.39	488.72	-544.83	909.29	95.637	-579.62	1063.8	463.67	-562.31	1061	128.63	-703.19	972.86	296.85	-504.28	673.39	511.69	-439.06	605.91	470.92	-502.83	583.28	498.35	-445.18	694.82	481.9	-510.64	493	489.28	-494.2	470.05	358.76	-729.58	413.82	464.11	-754.55	327.62	455.08	-794.23	377.05	442.05	-689	364.22	475.66	-854.48	297.51	430.74	-816.36	299.18	347.22	-920.58	336.3	371.43	-940.39	319.84	337.06	-947.19	310.92	400.76	-897.6	148.95	435.02	-858.89	141.34	318.07	-822.03	84.401	361.18	-473.59	676.9	115.27	-378.62	631.34	149.53	-438.18	590.74	137.8	-406.17	715.62	127.47	-399.41	513.35	148.97	-470.1	316.06	152.57	-406.65	255.12	164.46	-477.33	245.44	173.2	-403.97	324.48	149.08	-458.92	115.42	187.41	-428.71	128.66	275.21	-522.08	66.485	240.31	-511.2	41.721	273.05	-519.79	39.153	211.64	-337.15	37.247	157.83	-313.93	49.949	277.34	-250.83	60.408	222.4	-546.4	1539.5	278.93	-674.5	1268.4	291.07
